<svg width="22" height="22" viewBox="0 0 22 22" fill="none" xmlns="http://www.w3.org/2000/svg">
<path fill-rule="evenodd" clip-rule="evenodd" d="M19 4C19 5.65685 17.6569 7 16 7C15.4941 7 15.0175 6.87479 14.5994 6.65368L8.97528 10.6131C8.99159 10.7398 9 10.8689 9 11C9 11.1786 8.9844 11.3535 8.95448 11.5235L14.4796 15.4132C14.9255 15.1506 15.4451 15 16 15C17.6569 15 19 16.3431 19 18C19 19.6569 17.6569 21 16 21C14.3431 21 13 19.6569 13 18C13 17.5221 13.1118 17.0703 13.3106 16.6692L8.18209 13.0588C7.63511 13.6383 6.8598 14 6 14C4.34315 14 3 12.6569 3 11C3 9.34315 4.34315 8 6 8C6.90461 8 7.71571 8.40039 8.26574 9.03361L13.3683 5.44137C13.1335 5.01361 13 4.5224 13 4C13 2.34315 14.3431 1 16 1C17.6569 1 19 2.34315 19 4Z" fill="#BCBCBC"/>
</svg>
