<svg width="107" height="123" viewBox="0 0 107 123" fill="none" xmlns="http://www.w3.org/2000/svg">
<rect y="5.83008" width="107" height="116.02" fill="white"/>
<rect y="21.5713" width="65.4197" height="72.294" fill="white"/>
<ellipse cx="24.9482" cy="52.4711" rx="24.9482" ry="26.2357" fill="#D9D9D9"/>
<ellipse cx="24.9475" cy="52.4709" rx="11.0881" ry="11.6603" fill="white"/>
<rect x="24.9492" y="26.2354" width="24.9482" height="52.4714" fill="white"/>
<ellipse cx="24.9482" cy="52.4711" rx="24.9482" ry="26.2357" fill="#FFC0B9"/>
<ellipse cx="24.9475" cy="52.4709" rx="11.0881" ry="11.6603" fill="white"/>
<rect x="29.3828" y="26.2354" width="20.513" height="37.896" fill="white"/>
<rect x="14.416" y="29.7334" width="24.3938" height="11.6603" fill="#FFC0B9"/>
<ellipse cx="51.5615" cy="26.2357" rx="24.9482" ry="26.2357" fill="#FFC0B9"/>
<ellipse cx="51.5607" cy="26.2355" rx="11.0881" ry="11.6603" fill="white"/>
<rect x="24.9492" y="5.83008" width="51.5596" height="20.4056" fill="white"/>
<rect width="13.3412" height="13.409" rx="6.67058" transform="matrix(0.999709 -0.0241319 0.0218226 0.999762 58.7676 28.8896)" fill="#D9D9D9"/>
<rect x="58.7676" y="20.4053" width="17.1865" height="14.5754" fill="white"/>
<path d="M59.4686 39.0906C59.3882 35.4074 62.3079 32.3156 65.9909 32.2267C69.6739 32.1378 72.7255 35.0855 72.8059 38.7687C72.8863 42.4518 69.9665 45.5437 66.2835 45.6326C62.6005 45.7215 59.549 42.7738 59.4686 39.0906Z" fill="#D9D9D9"/>
<ellipse cx="26.2356" cy="24.9483" rx="26.2356" ry="24.9483" transform="matrix(0.00818362 0.999966 -0.999959 0.00905003 106.445 25.6533)" fill="#FFC0B9"/>
<ellipse cx="11.6603" cy="11.0881" rx="11.6603" ry="11.0881" transform="matrix(0.00818362 0.999966 -0.999959 0.00905003 92.7051 40.3535)" fill="white"/>
<rect width="40.8774" height="69.2892" transform="matrix(-0.999991 0.00422646 -0.00382181 -0.999993 93.2539 121.183)" fill="white"/>
<rect x="59.875" y="46.6406" width="27.1658" height="32.6489" fill="white"/>
<path d="M52.2596 43.7547C52.1792 40.0715 55.0989 36.9797 58.7819 36.8908C62.4649 36.8019 65.5165 39.7495 65.5969 43.4327C65.6773 47.1159 62.7575 50.2077 59.0745 50.2966C55.3916 50.3855 52.34 47.4379 52.2596 43.7547Z" fill="#FFC0B9"/>
<rect width="13.3412" height="13.409" rx="6.67058" transform="matrix(0.999709 -0.0241319 0.0218226 0.999762 72.0723 25.3916)" fill="#FFC0B9"/>
<rect width="13.3412" height="13.409" rx="6.67058" transform="matrix(0.999709 -0.0241319 0.0218226 0.999762 74.8457 25.3916)" fill="#FFC0B9"/>
<rect width="13.3412" height="13.409" rx="6.67058" transform="matrix(0.999709 -0.0241319 0.0218226 0.999762 50.4512 39.9668)" fill="#FFC0B9"/>
<rect width="13.3412" height="13.409" rx="6.67058" transform="matrix(0.999709 -0.0241319 0.0218226 0.999762 45.4609 39.9668)" fill="#FFC0B9"/>
<rect width="13.3412" height="13.409" rx="6.67058" transform="matrix(0.999709 -0.0241319 0.0218226 0.999762 57.1055 33.5537)" fill="#FFC0B9"/>
<rect width="13.3412" height="13.409" rx="6.67058" transform="matrix(0.999709 -0.0241319 0.0218226 0.999762 59.875 31.8047)" fill="#FFC0B9"/>
<rect width="56.5275" height="12.557" transform="matrix(0.563407 -0.826179 0.798408 0.602117 64.3105 93.9258)" fill="#FFC0B9"/>
<rect width="60.4143" height="15.5257" rx="7.76284" transform="matrix(0.559402 -0.828897 0.801409 0.598116 56.1309 106.567)" fill="#FFC0B9"/>
<rect width="34.5961" height="13.1884" rx="6.59422" transform="matrix(0.872484 -0.488643 0.451803 0.892118 48.7852 40.8096)" fill="#FFC0B9"/>
<rect width="34.6658" height="10.1864" rx="5.0932" transform="matrix(0.848647 -0.528959 0.491003 0.871158 53.7754 45.7383)" fill="#FFC0B9"/>
<ellipse cx="23.3206" cy="22.1763" rx="23.3206" ry="22.1763" transform="matrix(0.00818362 0.999966 -0.999959 0.00905003 74.2871 75.209)" fill="#FFC0B9"/>
<ellipse cx="10.3647" cy="9.85611" rx="10.3647" ry="9.85611" transform="matrix(0.00818362 0.999966 -0.999959 0.00905003 61.5195 86.5273)" fill="white"/>
<ellipse cx="44.3523" cy="20.4055" rx="13.8601" ry="14.5754" fill="#FFDA58"/>
<rect width="39.1805" height="16.8891" transform="matrix(0.52307 -0.85229 0.827425 0.561576 45.4609 92.8613)" fill="white"/>
<rect width="37.7936" height="17.4904" transform="matrix(0.999969 -0.00784811 0.00709675 0.999975 12.6895 82.8037)" fill="white"/>
<rect width="38.0973" height="17.3624" transform="matrix(0.913296 -0.407296 0.374 0.927429 29.9375 80.8154)" fill="white"/>
<rect width="24.3672" height="12.676" rx="6.33801" transform="matrix(-0.325633 -0.945496 0.934513 -0.355928 32.8848 112.088)" fill="#FFC0B9"/>
<ellipse cx="25.7802" cy="47.5162" rx="9.70207" ry="7.2877" fill="white"/>
<rect width="39.1805" height="16.8891" transform="matrix(0.52307 -0.85229 0.827425 0.561576 46.0156 93.4434)" fill="white"/>
<rect width="41.8229" height="13.8462" rx="6.9231" transform="matrix(0.955538 -0.294868 0.268775 0.963203 17.2168 67.0381)" fill="#FFC0B9"/>
<rect width="107" height="5.83016" fill="white"/>
</svg>
