<svg width="20" height="20" viewBox="0 0 20 20" fill="none" xmlns="http://www.w3.org/2000/svg">
<g clip-path="url(#clip0_109_9202)">
<path fill-rule="evenodd" clip-rule="evenodd" d="M16.8875 0.139862C17.3015 -0.0109807 17.7499 -0.0405237 18.1801 0.0547053C18.6102 0.149934 19.0043 0.365978 19.3159 0.677445C19.6275 0.988912 19.8438 1.38286 19.9392 1.81299C20.0346 2.24311 20.0053 2.69154 19.8547 3.10558L14.7489 18.4084C14.6247 18.7845 14.4061 19.1224 14.1139 19.3897C13.8218 19.6571 13.4659 19.8451 13.0804 19.9356C12.6957 20.0291 12.2934 20.0211 11.9127 19.9125C11.5321 19.8038 11.1862 19.5981 10.9089 19.3156L8.16894 16.5884L5.2918 18.077C5.18151 18.1342 5.05821 18.1616 4.93407 18.1566C4.80994 18.1516 4.68926 18.1143 4.58396 18.0483C4.47866 17.9824 4.39237 17.8902 4.33362 17.7807C4.27486 17.6712 4.24568 17.5483 4.24894 17.4241L4.36751 12.8756L14.4318 5.56558C14.5267 5.49663 14.6071 5.40967 14.6685 5.30964C14.7298 5.20962 14.7708 5.0985 14.7892 4.98263C14.8075 4.86675 14.8029 4.74839 14.7755 4.63431C14.7482 4.52022 14.6986 4.41265 14.6297 4.31772C14.5607 4.22279 14.4737 4.14237 14.3737 4.08106C14.2737 4.01974 14.1626 3.97872 14.0467 3.96035C13.9308 3.94198 13.8125 3.94661 13.6984 3.97398C13.5843 4.00135 13.4767 4.05092 13.3818 4.11986L3.14751 11.5541L0.676082 9.08272C0.409729 8.81629 0.21336 8.48816 0.104444 8.12752C-0.00447229 7.76687 -0.0225577 7.3849 0.0517965 7.01558C0.126557 6.61181 0.307401 6.2352 0.575772 5.9244C0.844143 5.6136 1.19038 5.37981 1.57894 5.247H1.58323L16.8861 0.138434L16.8875 0.139862Z" fill="#FFB500"/>
</g>
<defs>
<clipPath id="clip0_109_9202">
<rect width="20" height="20" fill="white"/>
</clipPath>
</defs>
</svg>
