<svg width="14" height="14" viewBox="0 0 14 14" fill="none" xmlns="http://www.w3.org/2000/svg">
<g clip-path="url(#clip0_107_8681)">
<path d="M6.41667 9.29451C5.31763 9.14551 4.31618 8.58472 3.61483 7.72552C2.91349 6.86633 2.56459 5.77287 2.63869 4.66625C2.71279 3.55963 3.20436 2.52245 4.014 1.76443C4.82363 1.00642 5.89091 0.584148 7.00001 0.58301C8.11046 0.581939 9.17977 1.00317 9.99115 1.7613C10.8025 2.51944 11.2953 3.55774 11.3694 4.66571C11.4436 5.77368 11.0937 6.8684 10.3907 7.72794C9.68762 8.58749 8.68402 9.14752 7.58334 9.29451V10.4997H10.5V11.6663H7.58334V13.9997H6.41667V11.6663H3.50001V10.4997H6.41667V9.29451ZM7.00001 8.16634C7.85091 8.16634 8.66696 7.82832 9.26864 7.22664C9.87032 6.62497 10.2083 5.80891 10.2083 4.95801C10.2083 4.10711 9.87032 3.29105 9.26864 2.68938C8.66696 2.0877 7.85091 1.74968 7.00001 1.74968C6.1491 1.74968 5.33305 2.0877 4.73137 2.68938C4.12969 3.29105 3.79167 4.10711 3.79167 4.95801C3.79167 5.80891 4.12969 6.62497 4.73137 7.22664C5.33305 7.82832 6.1491 8.16634 7.00001 8.16634Z" fill="#FFB500"/>
</g>
<defs>
<clipPath id="clip0_107_8681">
<rect width="14" height="14" fill="white"/>
</clipPath>
</defs>
</svg>
