<svg width="20" height="20" viewBox="0 0 20 20" fill="none" xmlns="http://www.w3.org/2000/svg">
<g clip-path="url(#clip0_125_9525)">
<path d="M18.723 1.12867L5.09154 12.4887M8.30297 15.7144L11.4144 18.8115C11.6055 19.0074 11.8444 19.1499 12.1075 19.2251C12.3705 19.3003 12.6487 19.3054 12.9144 19.2401C13.1815 19.1777 13.4281 19.0477 13.6305 18.8626C13.8328 18.6775 13.9842 18.4435 14.0701 18.183L19.1787 2.86867C19.2856 2.58185 19.3078 2.27035 19.2427 1.97126C19.1775 1.67218 19.0279 1.3981 18.8114 1.18166C18.595 0.96522 18.3209 0.815534 18.0218 0.750422C17.7227 0.685309 17.4112 0.707513 17.1244 0.814389L1.81012 5.92439C1.54066 6.01637 1.30063 6.17859 1.11479 6.39431C0.92896 6.61003 0.804056 6.87143 0.752973 7.15153C0.700486 7.40652 0.71217 7.67055 0.786976 7.9199C0.861782 8.16925 0.997366 8.39612 1.18154 8.5801L5.09154 12.4901L4.96297 17.4415L8.30297 15.7144Z" stroke="#FFB500" stroke-linecap="round" stroke-linejoin="round"/>
</g>
<defs>
<clipPath id="clip0_125_9525">
<rect width="20" height="20" fill="white"/>
</clipPath>
</defs>
</svg>
